<mxfile host="Electron" modified="2023-12-12T05:43:18.032Z" agent="Mozilla/5.0 (X11; Linux x86_64) AppleWebKit/537.36 (KHTML, like Gecko) draw.io/22.1.2 Chrome/114.0.5735.289 Electron/25.9.4 Safari/537.36" etag="jDrhLBQu8xk899xZ9J7S" version="22.1.2" type="device">
  <diagram name="Page-1" id="wgSqQTJSWsB0tCqlXV9K">
    <mxGraphModel dx="880" dy="540" grid="1" gridSize="10" guides="1" tooltips="1" connect="1" arrows="1" fold="1" page="1" pageScale="1" pageWidth="850" pageHeight="1100" math="0" shadow="0">
      <root>
        <mxCell id="0" />
        <mxCell id="1" parent="0" />
        <mxCell id="YaBLOK5gWIXg8gNVrT6M-3" value="" style="rounded=0;whiteSpace=wrap;html=1;" vertex="1" parent="1">
          <mxGeometry x="240" y="77.5" width="180" height="285" as="geometry" />
        </mxCell>
        <mxCell id="YaBLOK5gWIXg8gNVrT6M-9" style="rounded=0;orthogonalLoop=1;jettySize=auto;html=1;entryX=0;entryY=0.5;entryDx=0;entryDy=0;" edge="1" parent="1" target="YaBLOK5gWIXg8gNVrT6M-4">
          <mxGeometry relative="1" as="geometry">
            <mxPoint x="200" y="220" as="sourcePoint" />
          </mxGeometry>
        </mxCell>
        <mxCell id="YaBLOK5gWIXg8gNVrT6M-13" style="edgeStyle=orthogonalEdgeStyle;rounded=0;orthogonalLoop=1;jettySize=auto;html=1;entryX=0;entryY=0.5;entryDx=0;entryDy=0;" edge="1" parent="1" source="YaBLOK5gWIXg8gNVrT6M-1" target="YaBLOK5gWIXg8gNVrT6M-5">
          <mxGeometry relative="1" as="geometry" />
        </mxCell>
        <mxCell id="YaBLOK5gWIXg8gNVrT6M-14" style="rounded=0;orthogonalLoop=1;jettySize=auto;html=1;entryX=0;entryY=0.5;entryDx=0;entryDy=0;" edge="1" parent="1" target="YaBLOK5gWIXg8gNVrT6M-6">
          <mxGeometry relative="1" as="geometry">
            <mxPoint x="200" y="220" as="sourcePoint" />
          </mxGeometry>
        </mxCell>
        <mxCell id="YaBLOK5gWIXg8gNVrT6M-1" value="User" style="shape=umlActor;verticalLabelPosition=bottom;verticalAlign=top;html=1;outlineConnect=0;" vertex="1" parent="1">
          <mxGeometry x="170" y="190" width="30" height="60" as="geometry" />
        </mxCell>
        <mxCell id="YaBLOK5gWIXg8gNVrT6M-4" value="&lt;font style=&quot;font-size: 11px;&quot;&gt;Create&lt;br&gt;Account&lt;/font&gt;" style="ellipse;whiteSpace=wrap;html=1;" vertex="1" parent="1">
          <mxGeometry x="295" y="100" width="70" height="60" as="geometry" />
        </mxCell>
        <mxCell id="YaBLOK5gWIXg8gNVrT6M-5" value="&lt;font style=&quot;font-size: 11px;&quot;&gt;Manage&lt;br&gt;Exercises&lt;/font&gt;" style="ellipse;whiteSpace=wrap;html=1;" vertex="1" parent="1">
          <mxGeometry x="295" y="190" width="70" height="60" as="geometry" />
        </mxCell>
        <mxCell id="YaBLOK5gWIXg8gNVrT6M-6" value="&lt;font style=&quot;font-size: 11px;&quot;&gt;Answer&lt;br&gt;Exercises&lt;/font&gt;" style="ellipse;whiteSpace=wrap;html=1;" vertex="1" parent="1">
          <mxGeometry x="295" y="280" width="70" height="60" as="geometry" />
        </mxCell>
      </root>
    </mxGraphModel>
  </diagram>
</mxfile>
